<svg width="35" height="31" viewBox="0 0 35 31" fill="none" xmlns="http://www.w3.org/2000/svg">
<g filter="url(#filter0_d)">
<path d="M11.285 7.48601L8.45599 10.315L16.239 18.098L30.171 4.16601L27.343 1.33701L16.239 12.439L11.285 7.48601Z" fill="#6A6A6A"/>
<path d="M25 20C25 20.542 24.542 21 24 21H7C6.458 21 6 20.542 6 20V3C6 2.458 6.458 2 7 2H23.908L25.493 0.415C25.041 0.146542 24.5257 0.00329969 24 0H7C5.35 0 4 1.35 4 3V20C4 21.65 5.35 23 7 23H24C25.65 23 27 21.65 27 20V10.171L25 12.171V20Z" fill="#6A6A6A"/>
</g>
<defs>
<filter id="filter0_d" x="0" y="0" width="34.171" height="31" filterUnits="userSpaceOnUse" color-interpolation-filters="sRGB">
<feFlood flood-opacity="0" result="BackgroundImageFix"/>
<feColorMatrix in="SourceAlpha" type="matrix" values="0 0 0 0 0 0 0 0 0 0 0 0 0 0 0 0 0 0 127 0"/>
<feOffset dy="4"/>
<feGaussianBlur stdDeviation="2"/>
<feColorMatrix type="matrix" values="0 0 0 0 0 0 0 0 0 0 0 0 0 0 0 0 0 0 0.25 0"/>
<feBlend mode="normal" in2="BackgroundImageFix" result="effect1_dropShadow"/>
<feBlend mode="normal" in="SourceGraphic" in2="effect1_dropShadow" result="shape"/>
</filter>
</defs>
</svg>
